<svg height='100px' width='100px'  fill="#37abc8" xmlns="http://www.w3.org/2000/svg" xmlns:xlink="http://www.w3.org/1999/xlink" version="1.1" x="0px" y="0px" viewBox="0 0 100 100" enable-background="new 0 0 100 100" xml:space="preserve"><g><path d="M51.496,43.645V26.032c0-0.828-0.671-1.5-1.5-1.5s-1.5,0.672-1.5,1.5v17.615c-2.397,0.568-4.284,2.457-4.85,4.854H30.479   c-0.829,0-1.5,0.672-1.5,1.5s0.671,1.5,1.5,1.5h13.168c0.681,2.88,3.268,5.032,6.353,5.032c3.603,0,6.534-2.932,6.534-6.534   C56.534,46.913,54.379,44.324,51.496,43.645z M50,53.534c-1.944,0-3.526-1.578-3.533-3.521c0-0.004,0.001-0.007,0.001-0.011   c0-0.004-0.001-0.009-0.001-0.013c0.006-1.944,1.588-3.523,3.533-3.523c1.949,0,3.534,1.585,3.534,3.534S51.949,53.534,50,53.534z"></path><path d="M50,5C25.187,5,5,25.187,5,50s20.187,45,45,45s45-20.187,45-45S74.813,5,50,5z M50,92C26.841,92,8,73.159,8,50   S26.841,8,50,8s42,18.841,42,42S73.159,92,50,92z"></path><circle cx="50" cy="16.062" r="1.75"></circle><circle cx="50" cy="83.938" r="1.75"></circle><circle cx="83.938" cy="50" r="1.75"></circle><circle cx="16.062" cy="50" r="1.75"></circle><circle cx="73.998" cy="26.002" r="1.75"></circle><circle cx="26.002" cy="73.998" r="1.75"></circle><circle cx="73.998" cy="73.998" r="1.75"></circle><circle cx="26.002" cy="26.002" r="1.75"></circle></g></svg>